<svg version="1.2" xmlns="http://www.w3.org/2000/svg" viewBox="0 0 1080 1080" width="1080" height="1080">
	<title>새 프로젝트</title>
	<style>
		.s0 { fill: #54c0eb } 
		.s1 { fill: #324a5e } 
		.s2 { fill: #ffffff } 
	</style>
	<g id="레이어 3">
		<path id="Path 0" class="s0" d="m501 11.2c-2.9 0.3-10.9 1.2-17.9 2-6.9 0.7-21.5 2.9-32.4 4.7-10.9 1.8-29.1 5.6-40.4 8.4-11.3 2.9-26.8 7.2-34.4 9.7-7.7 2.5-21.7 7.6-31.2 11.3-9.4 3.8-26.4 11.3-37.7 16.9-11.3 5.5-26.2 13.4-33.1 17.4-6.9 4.1-18.9 11.5-26.5 16.6-7.7 5.1-20.7 14.4-29.1 20.7-8.3 6.3-23.2 18.6-33.1 27.5-9.9 8.8-23.6 22.2-30.5 29.8-7 7.5-16 17.6-20.1 22.3-4 4.8-12.3 15.2-18.4 23.2-6.1 8-15.3 21.1-20.4 29.1-5.2 8-12.4 19.7-15.9 25.9-3.6 6.2-10.8 20.2-16.2 31.1-5.3 10.9-12.7 27.3-16.2 36.4-3.6 9.1-9.2 24.9-12.5 35.1-3.2 10.2-7.7 26-10 35.1-2.2 9.1-5.5 25.2-7.3 35.8-1.8 10.5-4 24.8-5 31.7-1.1 8.4-1.7 28.1-1.7 58.3 0 36.8 0.5 49.2 2.4 63.6 1.3 9.8 4.2 26.8 6.3 37.7 2.2 11 5.4 25.6 7.3 32.5 1.8 6.9 5.7 20 8.7 29.1 2.9 9.1 8.2 24 11.8 33.1 3.5 9.2 10.9 25.5 16.2 36.5 5.4 10.9 12.6 24.9 16.2 31.1 3.5 6.2 10.7 17.8 15.9 25.8 5.1 8 14.4 21.1 20.4 29.2 6.1 8 15.6 19.8 21.1 26.3l10.1 11.7c2.9-6.9 8.6-19 14.7-31.4 6-12.4 15-28.9 20-36.8 4.9-7.8 13.5-20.3 19.1-27.8 5.5-7.5 16.4-20.7 24.1-29.5 7.6-8.7 21-22.2 29.6-30 8.6-7.8 20.1-17.7 25.6-21.9 5.5-4.3 16.2-12 23.8-17.2 7.7-5.1 21.7-13.7 31.2-19 9.4-5.3 23.1-12.3 30.4-15.5 7.3-3.3 20.1-8.5 28.5-11.6 8.4-3.2 20.9-7.3 27.8-9.3 6.9-2 12.7-3.7 12.9-3.8 0.2-0.1-5.5-4-12.6-8.7-7.1-4.8-19-14.6-26.6-21.9-7.6-7.3-17.5-18-22-23.8-4.4-5.9-10-13.6-12.3-17.2-2.3-3.7-6.8-12-10.1-18.6-3.2-6.5-8-18.2-10.6-25.8-2.5-7.7-5.5-18.4-6.6-23.9-1.1-5.4-2.7-17.3-3.6-26.4-0.8-9.2-1.1-22.4-0.7-29.5 0.5-7.1 2.1-19.3 3.6-27.2 1.5-7.8 4.4-19.3 6.5-25.5 2-6.2 6-16.3 8.9-22.5 2.9-6.2 7.8-15.4 10.9-20.5 3.1-5.1 9.4-14 14-19.9 4.6-5.8 13.6-15.7 20-21.9 6.5-6.3 16.2-14.7 21.7-18.8 5.5-4 15-10.1 21.2-13.6 6.2-3.4 14.8-7.7 19.2-9.5 4.4-1.9 13-5.1 19.2-7.2 6.2-2.1 17.8-5.2 25.8-6.8 12.1-2.4 18.9-2.9 39.8-2.8 20.8 0 27.5 0.5 39 3 7.7 1.6 20.2 5 27.8 7.6 7.7 2.6 20.8 8.3 29.2 12.6 8.4 4.4 19.1 10.8 23.8 14.1 4.8 3.4 13.4 10.4 19.2 15.5 5.7 5.1 14.3 13.8 19 19.2 4.6 5.5 12 15.3 16.4 21.9 4.3 6.5 10.6 17.6 13.9 24.5 3.3 6.9 7.7 17.6 9.7 23.8 2.1 6.2 4.8 15.7 5.9 21.2 1.2 5.5 2.7 14.1 3.5 19.2 0.7 5.1 1.3 17.3 1.4 27.2 0 9.8-0.7 22.6-1.5 28.4-0.9 5.9-3.1 16.6-4.9 23.9-1.9 7.3-5.1 17.5-7.2 22.8-2.1 5.3-6.3 14.5-9.3 20.6-3 6-9.4 16.5-14.2 23.5-4.8 6.9-14.7 18.7-22 26.3-7.3 7.5-18.4 17.4-24.6 21.9-6.2 4.5-13.5 9.5-16.2 11.1-2.7 1.6-4.8 3.2-4.6 3.5 0.1 0.3 6.5 2.5 14.2 4.8 7.6 2.2 14.2 4.7 14.6 5.4 0.4 0.7 4.9 0.3 11.2-1 5.8-1.1 14.5-3.3 19.2-4.8 4.8-1.4 13.4-5 19.2-7.9 5.9-3 14.2-7.8 18.6-10.7 4.3-3 13.9-11.4 21.2-18.7 7.3-7.4 16.2-17.9 19.8-23.3 3.6-5.5 9.4-15.3 12.8-21.9 3.5-6.5 7.8-15.9 9.7-20.8 1.8-4.9 3.4-9.6 3.4-10.3 0-0.7-2.3-1.7-5-2.1-2.7-0.4-6.5-1.7-8.3-2.7-1.8-1.1-4.8-4.2-6.5-6.9-3-4.5-3.2-5.7-2.4-14.8 0.5-5.4 1.5-14.1 2.2-19.2 0.7-5.1 1.3-16.3 1.4-24.8 0-8.6-0.6-21.4-1.4-28.5-0.8-7.1-2.6-18.9-4.1-26.2-1.5-7.2-4.8-19.5-7.3-27.1-2.6-7.7-8.1-21.1-12.3-29.8-4.3-8.7-11.2-21.3-15.6-27.8-4.3-6.6-12.3-17.3-17.8-23.9-5.5-6.5-14.3-16.1-19.7-21.2-5.4-5.1-14.6-12.9-20.5-17.3-5.8-4.4-15.6-11.2-21.8-15.1-6.2-3.9-15.7-9.1-21.2-11.6-5.5-2.5-14.4-6.3-19.9-8.5-5.4-2.2-17.7-6-27.1-8.4-9.5-2.4-23.5-5.1-31.1-6-8.9-1-23.1-1.3-39.1-0.9-15.2 0.4-29.4 1.6-35.8 2.9-5.8 1.2-15.3 3.4-21.2 4.8-5.8 1.5-15.9 4.8-22.5 7.4-6.5 2.5-17.9 7.7-25.1 11.4-7.3 3.8-17.8 9.8-23.2 13.3-5.5 3.6-15 10.6-21.2 15.5-6.2 5-15.5 13.4-20.7 18.7-5.2 5.4-12.6 13.6-16.4 18.3-3.9 4.8-10.6 14-14.9 20.6-4.4 6.5-11.1 18.3-15 26.1-4 7.9-9.6 21.3-12.5 29.8-3 8.6-7 23-8.9 32.2-3.2 15.1-3.5 19.1-3.5 47 0 21.4 0.6 33.8 2.1 41.7 1.3 7.4 1.6 12.9 0.9 15.9-0.6 2.5-3.1 6.6-5.5 8.9-3.1 3.1-6.3 4.8-11.6 5.8-4.2 0.9-16.1 1.3-28.5 1-20.7-0.5-21.5-0.6-26.9-4.1-3.9-2.6-6.1-5.3-7.5-9.3-1.8-4.8-2-13.8-1.7-60.2 0.4-53.2 0.5-54.6 3.2-58.2 1.5-2.1 4.4-5 6.4-6.4 3.1-2.4 6-2.7 23.7-3.1l20.1-0.4c2.8-11.7 5.9-21.3 8.8-29 2.8-7.6 8.3-20.1 12-27.8 3.8-7.6 11.7-21.1 17.5-29.8 5.9-8.8 15.7-21.9 21.9-29.1 6.2-7.2 15.8-17.2 21.2-22.2 5.5-5.1 15.9-13.7 23.2-19.2 7.3-5.4 18.9-13.2 25.8-17.3 6.9-4.1 18.6-10.2 25.9-13.6 7.2-3.4 19.8-8.3 27.8-10.9 8-2.7 19.3-6 25.1-7.5 5.9-1.4 16.9-3.5 24.5-4.5 7.7-1.1 20.5-2.4 28.5-2.9 8-0.4 22.9-0.2 33.1 0.7 10.2 0.8 26 2.9 35.1 4.8 9.1 1.8 24 5.7 33.1 8.7 9.1 2.9 24.3 9.1 33.8 13.7 9.5 4.6 22.9 12.1 29.8 16.6 6.9 4.5 17.4 12 23.2 16.5 5.8 4.6 17.3 15.1 25.5 23.4 8.2 8.2 19.2 20.7 24.5 27.8 5.3 7 13.3 18.9 17.8 26.5 4.5 7.5 11.5 21.1 15.5 30.2 4 9.1 9.2 23 11.6 30.7l4.4 14.2c37.8 0.8 40.7 1.1 43.8 3.5 2 1.4 4.8 4.3 6.4 6.4 2.7 3.6 2.8 5 3.2 58.9l0.4 55.2c-5.1 9.7-7.8 12.5-11.4 14.3-3.7 1.9-9.1 2.9-17.6 3.5l-12.4 0.7c-7.7 20.6-13.3 33.1-17.5 41.1-4.1 8-12.2 20.8-17.9 28.5-5.7 7.6-15.1 18.4-20.9 23.8-5.8 5.5-15.3 13.1-21.1 17-5.7 3.8-14.7 9-19.7 11.5-5.1 2.5-12.6 5.6-16.6 7l-7.3 2.4c27.7 13.4 42 21 49.7 25.6 7.6 4.6 18.7 11.7 24.5 15.8 5.8 4.1 16.5 12.2 23.8 18 7.3 5.8 20.1 17.1 28.4 25.1 8.2 8.1 20.2 20.7 26.5 27.9 6.2 7.3 15.9 19.5 21.5 27.2 5.6 7.6 14.1 20.5 19 28.5 4.9 8 12.3 21.4 16.5 29.8 4.2 8.3 9.3 19.1 11.3 23.8 2.1 4.7 4.1 9.1 4.5 9.7 0.4 0.5 5.3-4.2 10.8-10.6 5.6-6.4 15.1-18.2 21.1-26.2 6.1-8.1 15.3-21.2 20.5-29.2 5.2-8 12.5-19.9 16.2-26.5 3.7-6.5 10-18.4 14-26.5 4-8 10.6-22.3 14.6-31.7 3.9-9.5 10.5-27.4 14.5-39.8 4.1-12.4 9.2-29.9 11.4-39.1 2.3-9.1 5.6-25.1 7.4-35.7 1.8-10.6 4.1-25.5 5-33.1 1.1-8.8 1.7-29.8 1.7-57 0-27.1-0.6-48.1-1.7-56.9-0.9-7.7-3.2-22.6-5-33.1-1.8-10.6-5.2-26.7-7.4-35.8-2.2-9.1-7.3-26.7-11.3-39.1-4.1-12.4-10.7-30.2-14.7-39.7-3.9-9.5-10.5-23.8-14.5-31.8-4-8-10.3-19.9-14-26.5-3.7-6.5-11-18.5-16.2-26.5-5.2-8-14.4-21.1-20.4-29.1-6.1-8-14.7-18.7-19.1-23.8-4.4-5.1-13.5-15.2-20-22.4-6.6-7.2-20.1-20.3-29.9-29.1-9.9-8.9-24.8-21.2-33.1-27.5-8.4-6.3-21.5-15.6-29.1-20.7-7.7-5.1-19.6-12.5-26.5-16.6-6.9-4-21.8-11.9-33.1-17.4-11.3-5.6-28.3-13.1-37.8-16.8-9.4-3.7-23.4-8.8-31.1-11.3-7.6-2.6-23.1-6.9-34.4-9.8-11.3-2.8-28-6.4-37.1-7.9-9.1-1.6-22.8-3.7-30.5-4.8-9.2-1.3-27.6-2.2-54.9-2.4-22.6-0.3-43.5-0.2-46.4 0z"/>
		<path id="Path 1" class="s1" d="m516.3 177.4c-7 0.6-18.3 2-25.2 3.2-6.9 1.2-15.9 3.1-19.9 4.2-4 1.1-13.8 4.1-21.8 6.7-8 2.6-20.6 7.5-27.8 10.9-7.3 3.4-19 9.5-25.9 13.6-6.9 4.1-18.5 11.9-25.8 17.3-7.3 5.5-17.7 14.1-23.2 19.2-5.4 5-15 15-21.2 22.2-6.2 7.2-16 20.3-21.9 29.1-5.8 8.7-13.7 22.2-17.5 29.8-3.7 7.7-9.2 20.2-12 27.8-2.9 7.7-6 17.3-7 21.5l-1.8 7.5c-38.2 0.8-40.6 1.1-44 3.6-2 1.6-4.9 4.5-6.4 6.4-2.5 3.4-2.6 6-3 58.1-0.3 46.4-0.1 55.4 1.7 60.2 1.4 4 3.6 6.7 7.5 9.3 5.4 3.5 6.2 3.6 26.9 4.1 12.4 0.3 24.3-0.1 28.5-1 5.3-1 8.5-2.7 11.6-5.8 2.4-2.3 4.9-6.4 5.5-8.9 0.7-3 0.4-8.5-0.9-15.9-1.5-7.9-2.1-20.3-2.1-41.7 0-27.9 0.3-31.9 3.5-47 1.9-9.2 5.9-23.6 8.9-32.2 2.9-8.5 8.5-21.9 12.5-29.8 3.9-7.8 10.6-19.6 15-26.1 4.3-6.6 11-15.8 14.9-20.6 3.8-4.7 11.2-12.9 16.4-18.3 5.2-5.3 14.5-13.7 20.7-18.7 6.2-4.9 15.7-11.9 21.2-15.5 5.4-3.5 15.9-9.5 23.2-13.3 7.2-3.7 18.6-8.9 25.1-11.4 6.6-2.6 16.7-5.9 22.5-7.4 5.9-1.4 15.4-3.6 21.2-4.8 6.4-1.3 20.6-2.5 35.8-2.9 16-0.4 30.2-0.1 39.1 0.9 7.6 0.9 21.6 3.6 31.1 6 9.4 2.4 21.7 6.2 27.1 8.4 5.5 2.2 14.4 6 19.9 8.5 5.5 2.5 15 7.7 21.2 11.6 6.2 3.9 16 10.7 21.8 15.1 5.9 4.4 15.1 12.2 20.5 17.3 5.4 5.1 14.2 14.7 19.7 21.2 5.5 6.6 13.5 17.3 17.8 23.9 4.4 6.5 11.3 19.1 15.6 27.8 4.2 8.7 9.7 22.1 12.3 29.8 2.5 7.6 5.8 19.9 7.3 27.1 1.5 7.3 3.3 19.1 4.1 26.2 0.8 7.1 1.4 19.9 1.4 28.5-0.1 8.5-0.7 19.7-1.4 24.8-0.7 5.1-1.7 13.8-2.2 19.2-0.8 9.1-0.6 10.3 2.4 14.8 1.7 2.7 4.7 5.8 6.5 6.9 1.8 1 5.6 2.3 8.3 2.7 2.7 0.4 5 1.4 5 2.1 0 0.7-1.6 5.4-3.4 10.3-1.9 4.9-6.2 14.3-9.7 20.8-3.4 6.6-9.2 16.4-12.8 21.9-3.6 5.4-12.5 15.9-19.8 23.3-7.3 7.3-16.9 15.7-21.2 18.7-4.4 2.9-12.7 7.8-18.6 10.7-5.8 3-15.6 6.8-21.8 8.6-6.2 1.8-15.2 4.1-19.9 5-4.7 0.9-17.5 1.6-28.5 1.6-11.7 0-25.6-1-33.7-2.2-7.7-1.2-16.3-2.9-19.2-3.6-3-0.8-9.2-2.5-14-3.8-8.5-2.5-8.6-2.6-12.7-10.9-2.7-5.3-7.3-11.2-12.6-16.3-4.9-4.7-12.5-10.1-18.4-13.1-8.6-4.4-10.9-5-17.3-4.6-5.1 0.4-8.9 1.5-12.5 3.9-3.4 2.2-6.7 6.2-9.5 11.3-2.3 4.3-4.6 10.2-5.1 13.1-0.5 3.3-0.2 7.5 0.9 11.1 1.2 3.8 3.8 7.6 7.4 10.9 3.1 2.9 8.5 6.4 12 7.9 3.4 1.5 10.4 3.7 15.5 4.8 5.7 1.2 12.9 1.7 18.6 1.3 5.4-0.3 11.4-1.7 14.5-3.2l5.3-2.7c27.8 7 42.5 9.9 50.7 11 8.2 1.1 21.9 1.9 30.5 1.9 8.5 0 21.2-0.8 28.1-1.9 6.9-1 18-3.5 24.5-5.4 6.6-1.9 16.7-5.8 22.5-8.6 5.9-2.8 15.4-8.2 21.1-12.1 5.8-3.9 15.3-11.5 21.1-17 5.8-5.4 15.2-16.2 20.9-23.8 5.7-7.7 13.8-20.5 17.9-28.5 4.2-8 9.8-20.5 12.5-27.8l5-13.3c20.9-1.3 26.3-2.3 30-4.2 3.6-1.8 6.3-4.6 8.3-8.5l3.1-5.8c-0.8-108-0.9-110.6-3.5-114-1.4-1.9-4.3-4.8-6.3-6.4-3.4-2.5-5.8-2.8-23.9-3.2l-20.1-0.4c-6.8-21.9-12-35.8-16-44.9-4-9.1-11-22.7-15.5-30.2-4.5-7.6-12.5-19.5-17.8-26.5-5.3-7.1-16.3-19.6-24.5-27.8-8.2-8.3-19.7-18.8-25.5-23.4-5.8-4.5-16.3-12-23.2-16.5-6.9-4.5-20.3-12-29.8-16.6-9.5-4.6-24.7-10.8-33.8-13.7-9.1-3-24-6.9-33.1-8.7-9.1-1.8-24.3-4-33.8-4.7-9.4-0.8-20.7-1.3-25.1-1.2-4.4 0.1-13.6 0.6-20.5 1.2z"/>
		<path id="Path 2" class="s2" d="m519.6 251c-3 0.3-11.6 1.7-19.2 3.2-7.7 1.4-19 4.3-25.2 6.4-6.2 2.1-14.8 5.3-19.2 7.2-4.4 1.8-13 6.1-19.2 9.5-6.2 3.5-15.7 9.6-21.2 13.6-5.5 4.1-15.2 12.5-21.7 18.8-6.4 6.2-15.4 16.1-20 21.9-4.6 5.9-10.9 14.8-14 19.9-3.1 5.1-8 14.3-10.9 20.5-2.9 6.2-6.9 16.3-8.9 22.5-2.1 6.2-5 17.7-6.5 25.5-1.5 7.9-3.1 20.1-3.6 27.2-0.4 7.1-0.1 20.3 0.7 29.5 0.9 9.1 2.5 21 3.6 26.4 1.1 5.5 4.1 16.2 6.6 23.9 2.6 7.6 7.4 19.3 10.6 25.8 3.3 6.6 7.8 14.9 10.1 18.6 2.3 3.6 7.9 11.3 12.3 17.2 4.5 5.8 14.4 16.5 22 23.8 7.6 7.3 19.5 17.1 26.6 21.9 7.1 4.7 12.8 8.6 12.6 8.7-0.2 0.1-6 1.8-12.9 3.8-6.9 2-19.4 6.1-27.8 9.3-8.4 3.1-21.2 8.3-28.5 11.6-7.3 3.2-21 10.2-30.4 15.5-9.5 5.3-23.5 13.9-31.2 19-7.6 5.2-18.3 12.9-23.8 17.2-5.5 4.2-17 14.1-25.6 21.9-8.6 7.8-22 21.3-29.6 30-7.7 8.8-18.6 22-24.1 29.5-5.6 7.5-14.1 20-19.1 27.8-4.9 7.9-13 22.3-18 32.1-4.9 9.9-10.7 21.8-12.7 26.5l-3.7 8.6c4.1 6.2 11.8 14.2 19.7 21.9 8 7.6 20.4 19 27.7 25.3 7.3 6.2 18.3 15.2 24.5 19.9 6.2 4.7 17.5 12.8 25.1 17.9 7.7 5.1 21.1 13.5 29.8 18.7 8.8 5.2 24 13.2 33.8 17.9 9.8 4.7 25.3 11.5 34.4 15.2 9.2 3.6 23.2 8.8 31.2 11.4 8 2.6 19.9 6.2 26.5 8 6.5 1.8 17.5 4.5 24.5 6 6.9 1.5 19.7 4 28.4 5.5 8.8 1.5 24.3 3.5 34.5 4.6 10.4 1 32.7 1.9 51 1.9 17.8 0 39-0.6 47-1.3 8-0.7 21.1-2.3 29.1-3.4 8-1.1 21.7-3.5 30.5-5.3 8.7-1.8 23.6-5.4 33.1-7.9 9.5-2.5 24.1-6.9 32.4-9.7 8.4-2.8 22.1-8 30.5-11.4 8.4-3.5 24.5-10.9 35.8-16.5 11.3-5.7 28.8-15.4 39-21.6 10.2-6.3 25.8-16.6 34.7-23.1 8.8-6.4 22.5-17.1 30.4-23.6 7.9-6.6 22.6-20 32.7-29.8 16.4-16 18.3-18.3 17.4-21.2-0.5-1.8-5.3-12.6-10.8-23.9-5.4-11.3-14.1-27.6-19.3-36.4-5.3-8.7-14.5-22.7-20.7-31.1-6.1-8.4-15.7-20.6-21.3-27.2-5.7-6.5-17.4-18.8-26-27.2-8.7-8.4-21.7-20-29-25.8-7.3-5.8-18-13.9-23.8-18-5.8-4.1-16.9-11.2-24.5-15.8-7.7-4.6-22-12.2-31.8-16.9l-17.9-8.6c-14.4 3.4-22.7 5-27.8 5.7-5.1 0.7-16.3 1.3-24.8 1.3-8.6 0-22.3-0.8-30.5-1.9-8.2-1.1-22.9-4-32.8-6.5l-17.9-4.5c-8.4 4.2-14.4 5.6-19.8 5.9-5.7 0.4-12.9-0.1-18.6-1.3-5.1-1.1-12.1-3.3-15.5-4.8-3.5-1.5-8.9-5-12-7.9-3.6-3.3-6.2-7.1-7.4-10.9-1.1-3.6-1.4-7.8-0.9-11.1 0.5-2.9 2.8-8.8 5.1-13.1 2.8-5.1 6.1-9.1 9.5-11.3 3.6-2.4 7.4-3.5 12.5-3.9 6.4-0.4 8.7 0.2 17.3 4.6 5.9 3 13.5 8.4 18.4 13.1 5.3 5.1 9.9 11 12.6 16.3 4.1 8.3 4.2 8.4 12.7 10.9 4.8 1.3 11 3 14 3.8 2.9 0.7 11.2 2.2 18.5 3.3 7.3 1 18.3 2.3 24.5 2.8 6.2 0.5 15.6 0.5 20.9 0.1 5.2-0.4 9.6-1.2 9.6-1.8 0-0.5-5.8-2.7-12.9-4.8-7.1-2.2-13.9-4.3-15-4.8-1.4-0.7-0.6-1.7 3.4-4 2.9-1.7 10.3-6.8 16.5-11.3 6.2-4.5 17.3-14.4 24.6-21.9 7.3-7.6 17.2-19.4 22-26.3 4.8-7 11.2-17.5 14.2-23.5 3-6.1 7.2-15.3 9.3-20.6 2.1-5.3 5.3-15.5 7.2-22.8 1.8-7.3 4-18 4.9-23.9 0.8-5.8 1.5-18.6 1.5-28.4-0.1-9.9-0.7-22.1-1.4-27.2-0.8-5.1-2.3-13.7-3.5-19.2-1.1-5.5-3.8-15-5.9-21.2-2-6.2-6.4-16.9-9.7-23.8-3.3-6.9-9.6-18-13.9-24.5-4.4-6.6-11.8-16.4-16.4-21.9-4.7-5.4-13.3-14.1-19-19.2-5.8-5.1-14.4-12.1-19.2-15.5-4.7-3.3-15.4-9.7-23.8-14.1-8.4-4.3-21.5-10-29.2-12.6-7.6-2.6-20.1-5.9-27.8-7.5-9.7-2-20.1-3-34.4-3.3-11.3-0.2-22.9-0.1-25.8 0.2z"/>
	</g>
</svg>